<?xml version="1.0" standalone="no"?>
<!DOCTYPE svg PUBLIC "-//W3C//DTD SVG 1.1//EN" "http://www.w3.org/Graphics/SVG/1.1/DTD/svg11.dtd" >
<svg>
<metadata>
Created by FontForge 20090914 at Thu Feb 23 18:51:50 2012
 By ffonts
http://member.aol.com/sporkthug.home.htm
</metadata>
<defs>
<font id="CyanideBreathmint" horiz-adv-x="3072" >
  <font-face 
    font-family="Cyanide Breathmint"
    font-weight="400"
    font-stretch="normal"
    units-per-em="4096"
    panose-1="2 11 114 0 0 0 0 0 0 0"
    ascent="3276"
    descent="-820"
    x-height="3430"
    cap-height="3474"
    bbox="76.3121 -44.18 2560 3607.42"
    underline-thickness="50"
    underline-position="-75"
    unicode-range="U+0020-U+007E"
  />
<missing-glyph 
d="M512 0v2560h2048v-2560h-2048zM2494 66v2428h-1916v-2428h1916z" />
    <glyph glyph-name=".notdef" 
d="M512 0v2560h2048v-2560h-2048zM2494 66v2428h-1916v-2428h1916z" />
    <glyph glyph-name=".null" horiz-adv-x="0" 
 />
    <glyph glyph-name="nonmarkingreturn" horiz-adv-x="0" 
 />
    <glyph glyph-name="grave" unicode="`" 
d="M512 0v2560h2048v-2560h-2048zM2494 66v2428h-1916v-2428h1916z" />
    <glyph glyph-name="one" unicode="1" horiz-adv-x="1823" 
d="M311 3266v-51h104v103zM363 259v-103h881l-259 414v363h-104q-207 -726 -518 -674zM156 3111v207l155 156q363 155 726 -311l104 -2541l207 -259q415 52 415 -156l-104 -207l-1503 52v259q985 52 518 2852q-467 -208 -518 -52z" />
    <glyph glyph-name="two" unicode="2" horiz-adv-x="1753" 
d="M238 286v-95h191l-143 95h-48zM429 3048v-95h47v95h-47zM524 762v-48h48v48h-48zM524 3191v-95l95 47v48h-95zM714 1048v-48h48v48h-48zM619 3286v-95l191 48v95zM905 1334v-48h48v48h-48zM857 3382v-96h143v96h-143zM1095 1619v-47h48v47h-48zM1048 3334l95 -143h48
l-48 143h-95zM1191 3191v-48h47v48h-47zM1286 1905v-48h48v48h-48zM1286 3143v-95h48v95h-48zM1238 238v-47h143v47h-143zM1381 2096v-48h48v48h-48zM1381 2953v-48h48v48h-48zM1476 2667v-333h48v333h-48zM191 2524q0 715 619 1000q619 48 857 -857q95 -143 -191 -857
l-1000 -1429v-48q905 -95 1048 239l143 -96q0 -333 -429 -476q-1047 -95 -1143 191l286 619l857 1238q286 810 -238 1095l-333 -95l-286 -571z" />
    <glyph glyph-name="three" unicode="3" horiz-adv-x="1721" 
d="M233 512v-47h46v47h-46zM279 465l47 -139h93l-47 139h-93zM419 3165v-93h46v93h-46zM419 326v-47h93v47h-93zM465 3212v-47h94v47h-94zM559 3305v-93l232 93v46zM838 3398v-93l279 -93h47v93l-187 93h-139zM559 279l93 -139q325 -47 558 139v47l-326 -93zM791 1955v-93
q280 46 373 -140h46v93l-139 47l93 139zM1164 3212v-47h46v47h-46zM1257 465v-93h46v93h-46zM1210 1722l47 -93h46v93h-93zM1257 2188v-47h46v47h-46zM1350 605v-93h46v93h-46zM1350 2932v-93h46v93h-46zM186 698l512 -326q326 -46 466 93l186 466v279q0 186 -233 419
l-372 93q-140 93 -93 326l419 93q465 698 -187 1071q-139 0 -512 -419l-186 139q93 419 559 605l419 -93l372 -465v-698l-233 -419l233 -279q326 -1164 -512 -1583q-559 -93 -931 419q-46 233 93 279z" />
    <glyph glyph-name="four" unicode="4" horiz-adv-x="1641" 
d="M439 1950v-243h49v243h-49zM634 2438v-97h49v97h-49zM731 2682v-98h49v98h-49zM585 1658q-49 -244 98 -341l195 48l195 634v829l-147 -97zM878 244v-98h439l-98 293h-97l-98 -195h-146zM244 1365v-243q926 -98 878 -293h97l195 244v97q-292 49 -195 585l-97 -48l-98 -390
q-195 -147 -341 -147l-195 147q-49 341 -147 341zM1073 3511l244 -195l48 -1902l195 -195q98 -195 -195 -390v-439l195 -97l-48 -293l-829 49v244q292 0 390 390l-244 243q-829 0 -731 391l97 146l98 487l97 98l293 926z" />
    <glyph glyph-name="five" unicode="5" horiz-adv-x="1744" 
d="M238 572v-48h48v48h-48zM333 476v-95h96l-48 95h-48zM381 2334v-334l333 96l-238 143v95h-95zM429 381v-95l238 -143q286 -48 476 95v48q-429 -143 -762 95h48zM1143 333v-47h95v95zM762 2239v-96l429 -95h47v95l-143 96h-333zM1286 524v-95h48v95h-48zM1238 2048l48 -95
h48v95h-96zM524 3143v-142l286 238l524 47v96h-620zM1476 1524v-143h48v143h-48zM143 762h143q476 -571 762 -381l190 191l143 619l-47 476l-286 333l-429 -47l-286 -143l-95 143l48 1000l190 381l191 190h762l95 -142l-143 -239q-952 96 -762 -809q905 238 1048 -858
q48 -1238 -667 -1476l-476 48l-429 428z" />
    <glyph glyph-name="six" unicode="6" horiz-adv-x="1654" 
d="M279 1489v-325l140 232l-47 140zM465 512v-47h47v47h-47zM465 1676v-47h47v47h-47zM465 2839v-93h47v93h-47zM559 1815v-46h46v46h-46zM559 2979v-93h46v93h-46zM559 372v-93h93l-47 93h-46zM652 3119v-94l93 47v47h-93zM652 279l93 -139l372 46v93q-186 -93 -512 0h47z
M745 3212v-93l372 186v46zM1117 326v-47h47v47h-47zM605 1908v-93l372 140l233 -140l-139 186q-280 47 -466 -93zM1210 419v-47h47v47h-47zM465 1303q-139 -326 280 -931h279l233 326v791l-280 326q-139 47 -325 -139l-93 -326zM1210 1815v-93h47v93h-47zM1164 3398l93 -140
h139l-93 140h-139zM1396 1210v-93h47v93h-47zM1071 3537q232 94 465 -186q47 -232 -93 -279q-605 326 -1024 -884v-280h93q186 373 605 233q419 -279 466 -931q93 -93 -187 -884q-93 -233 -372 -326q-838 -140 -931 1629q0 1536 978 1908z" />
    <glyph glyph-name="seven" unicode="7" horiz-adv-x="1737" 
d="M634 3365v-98l634 49v49h-634zM1414 3267v-49h98v49h-98zM634 3511q731 97 1024 -195l-488 -2780l-195 -536l-195 49l49 682q439 1561 488 2390h-781l-97 -49l-98 -293l-195 98q-48 439 488 634z" />
    <glyph glyph-name="eight" unicode="8" horiz-adv-x="1608" 
d="M279 2793v-140h47v140h-47zM372 512v-47h47v47h-47zM372 1536v-47h47v47h-47zM372 2188v-93h47v93h-47zM465 2048v-93h94l-47 93h-47zM465 3212v-93l94 46v47h-94zM559 3305v-93l186 46v93zM465 372v-93l233 -139l373 46l-419 47l-93 139h-94zM791 3398v-93l233 -93h93
v93l-186 93h-140zM1071 1722v-46h93v46h-93zM559 1908l46 -139h466l93 139v93q-187 -232 -652 -93h47zM1117 3212v-47h47v47h-47zM1071 326v-93l139 93v46zM419 2607l46 -326l233 -280l373 47l139 233q47 791 -279 884t-512 -558zM1210 465v-93h47v93h-47zM419 1303v-605
l279 -326l373 47l186 279v605l-233 326h-372zM1210 1629v-93h47v93h-47zM1210 3119v-47h47v47h-47zM1396 2607v-47h47v47h-47zM745 3537l372 -93q559 -558 419 -791l-47 -465l-232 -373q465 -465 232 -1303q-232 -419 -512 -512q-512 -93 -837 605v791l279 419l-233 373
q-186 1070 559 1349z" />
    <glyph glyph-name="nine" unicode="9" horiz-adv-x="1607" 
d="M419 1722v-93h46v93h-46zM419 3212v-93l93 46v47h-93zM512 1629v-46h47v46h-47zM512 3305v-93l279 93v93zM559 1583l93 -140l279 46l-326 94h-46zM931 1583v-47h46v47h-46zM279 279l47 -139q233 -140 698 279v93q-419 -465 -791 -233h46zM977 1629v-46h47v46h-47z
M838 3351l93 -139h93l-93 139h-93zM1071 605v-46h46v46h-46zM1071 1722v-46h46v46h-46zM1164 745v-93h46v93h-46zM1164 1908v-93h46v93h-46zM372 2607q-139 -419 280 -931q325 -47 325 93l140 372l93 47q0 837 -419 977q-279 0 -419 -558zM1257 1024v-140h46v140h-46z
M1257 2141l93 -186h46v279zM186 419q791 -279 1071 977v187h-93q-326 -373 -699 -187l-279 326q47 233 -93 326v698q140 140 93 326l279 372l187 93q744 -46 884 -1256q140 -1909 -884 -2281q-373 -93 -559 186z" />
    <glyph glyph-name="zero" unicode="0" horiz-adv-x="1601" 
d="M279 838v-140h47v140h-47zM279 2886v-186l93 139v47h-93zM372 559v-94h47v94h-47zM465 3212v-93l94 46v47h-94zM559 3305v-47l279 47v93zM465 419q-93 -93 187 -279l372 46v93l-372 -46zM1024 326v-47h47v47h-47zM884 3351v-93l140 -93h47q46 140 -94 186h-93zM1117 419
v-47h47v47h-47zM1117 3119v-47h47v47h-47zM372 2467v-1396l280 -699q279 -46 372 93l186 559q186 1676 -372 2141l-233 -46zM1210 652v-140h47v140h-47zM1303 2607v-140h47v140h-47zM698 3537q791 -93 838 -1349l-93 -1583q-233 -465 -512 -605h-279q-280 93 -419 419
l-140 558l47 1955l372 512z" />
    <glyph glyph-name="hyphen" unicode="-" 
d="M512 0v2560h2048v-2560h-2048zM2494 66v2428h-1916v-2428h1916z" />
    <glyph glyph-name="equal" unicode="=" 
d="M512 0v2560h2048v-2560h-2048zM2494 66v2428h-1916v-2428h1916z" />
    <glyph glyph-name="q" unicode="q" horiz-adv-x="1910" 
d="M218 2266v-131h43v131h-43zM479 3094v-44h44v44h-44zM566 3268v-87l88 44v43h-88zM654 3355v-87l174 87h261v87h-261zM1133 741v-87l131 43v87zM1264 828v-44h43v44h-43zM1133 3399v-87l131 -87h43l-87 174h-87zM1351 915v-87h43v87h-43zM1351 3225v-88h43v88h-43z
M479 1002q0 -174 175 -261l43 -305l-131 -218v-87l567 130q218 -217 305 -130q-174 174 -567 218q-87 174 218 348q-261 -131 -566 305h-44zM349 2179q43 -872 130 -915l175 -305l217 -131q306 -44 436 131l262 697v784q-218 697 -480 785q-523 174 -740 -1046zM1612 1482
v-131h44v131h-44zM1612 2702v-131h44v131h-44zM1482 218v-87l217 130v44zM784 3573q698 174 1046 -1089l-43 -1177q-305 -784 -785 -871h262l43 -87q262 -44 392 130l131 -87q44 -305 -261 -392l-698 131q44 -131 -305 -131l-130 44l130 566l-174 174l-218 480
q-130 523 -87 1045l87 480l349 610z" />
    <glyph glyph-name="w" unicode="w" horiz-adv-x="2519" 
d="M563 1485v-154h51v154h-51zM614 922l103 -615h102l103 410v256l-103 -103zM307 3277q256 -154 154 -615l102 52q51 460 359 512l-359 102zM1075 1894v-256l154 256l256 -102l-154 666l-153 -154zM1485 1690v-154h51v154h-51zM1587 1178v-154h51v154h-51zM1843 1178v-103
h51v103h-51zM1638 922l154 -717l102 102l52 410v256l-154 -103zM1638 3277q461 -51 359 -359l153 52v204h103v103l-307 51zM307 3482l768 -103v-256l-307 -205l-102 -768l102 -1024l102 103l154 1126l154 307l153 52q359 -359 359 -1332l153 -51l51 666l-51 1075
q-358 0 -358 102q-51 256 153 308l768 -103l-204 -921q-52 -2253 -308 -2458l-256 205l-307 1433v52l-102 -52l-256 -1382l-256 -256l-205 358l-205 2663l-153 102q-52 307 153 359z" />
    <glyph glyph-name="e" unicode="e" horiz-adv-x="2144" 
d="M311 259v-103h830l-519 466l-52 415q0 -570 -259 -778zM570 2074v-570h104q52 207 259 259l363 -363v622l-415 -207l-259 259h-52zM1400 259v-52h104v52h-104zM311 3318v-103l207 -104v-622q104 674 519 726q259 207 830 -415q51 415 -519 518h-1037zM156 3474l1451 -52
l363 -311v-674l-103 -104l-156 52l-104 467l-259 207q-363 156 -622 -311q-104 -467 207 -778h104l207 467l208 -156v-985l-156 -155q-207 103 -155 259l-208 207l-207 -259q-208 -674 467 -985l362 52l208 155v571l207 103l104 -103q0 -882 -674 -1141l-1296 52v259
q103 -52 259 363q104 1089 0 2385q-414 104 -207 415z" />
    <glyph glyph-name="r" unicode="r" horiz-adv-x="2450" 
d="M307 256v-102h666l-307 204l-52 717l-153 -768zM307 3277l256 -205v-614q154 768 768 768l-819 102zM1331 1536v-51h51v51h-51zM1382 1485v-51h52v51h-52zM614 1894v-614h103l256 307l358 -51l51 154h103v102l-615 -102l-204 204h-52zM1485 1382v-102h51v102h-51z
M1485 1843v-51h51v51h-51zM1587 1229v-103h51v103h-51zM1587 1946v-103h51v103h-51zM1485 3226l102 -205h51q52 153 -102 205h-51zM768 2714q-51 -820 154 -871l460 51l308 359v461l-308 358q-307 51 -460 -102zM1690 2048v-102h51v102h-51zM1690 2970v-52h51v52h-51z
M1792 768v-51h51v51h-51zM1792 2304v-154h51v154h-51zM307 3482l1331 -103l359 -563q205 -768 -461 -1280l358 -461l205 -665l256 -103q51 -256 -102 -307l-205 51l-614 1075l-256 308h-205l-205 -256q-154 -871 358 -922q52 -205 -102 -256l-870 51v256q256 103 307 1075
l-51 1639l-256 153q-52 256 153 308z" />
    <glyph glyph-name="t" unicode="t" horiz-adv-x="2150" 
d="M819 3277v-154l205 -153l51 -359h103q51 615 358 615v51h-717zM614 256v-102h973v102q-358 0 -358 102l-103 410h-102q-51 -461 -410 -512zM1638 3174v-51h103v51h-103zM1741 3072l102 -358h51q52 358 -102 358h-51zM1075 3482q819 -103 973 -461l-51 -922h-205
q0 563 -256 973l-154 -154l-102 -358l51 -2048l461 -256l-102 -256h-1127l-102 102v205l205 103q358 409 307 1024q102 972 -205 1638q-205 51 -256 -102l-51 -820q-256 -102 -307 52q-52 1075 921 1280z" />
    <glyph glyph-name="y" unicode="y" horiz-adv-x="2233" 
d="M614 2816v-154h52v154h-52zM256 3277q307 -256 256 -359h102v256l103 52l-256 102zM819 2304q256 -512 307 -1126l154 768l102 102v205l-307 -154zM1536 2662v-102h51v102h-51zM614 205v-51h1024l-51 102q-409 -51 -409 410h-103l-153 -359zM1638 2918v-153h52v153h-52z
M1536 3328q51 -154 154 -154v-204h102l205 256l-256 102h-205zM256 3482l614 -103l-102 -512l256 -563l256 51l256 615v102q-256 51 -154 307l154 103l614 -103v-205q-153 -51 -512 -768l-307 -1024q-102 -870 0 -921l461 -154q51 -256 -102 -307h-1127l-102 102l51 205
l358 205q154 256 103 768l-205 819l-307 512l-103 410l-256 205q52 256 154 256z" />
    <glyph glyph-name="u" unicode="u" horiz-adv-x="2209" 
d="M500 949v-150h49v150h-49zM599 599v-50h50v50h-50zM250 3297q299 -50 200 -650l99 50q100 550 300 550l-349 100zM699 500l100 -250q200 0 200 -100h300l150 100v50l-450 -50zM1449 400v-50h99v100zM1598 599v-99h50v99h-50zM1648 649v-50h50v50h-50zM1698 849v-200h50
v200h-50zM1399 3297l299 -150l50 -300h100q-50 400 150 400l-400 150zM250 3497l749 -100v-250l-150 -50l-150 -250q-100 -1049 0 -2148l350 -299q350 -100 599 649v1548l-100 500l-299 100q-50 150 150 300l749 -100q50 -300 -150 -400l-100 -2398q-250 -399 -549 -599
h-400q-400 200 -599 799q100 2398 -250 2398q-50 150 150 300z" />
    <glyph glyph-name="i" unicode="i" horiz-adv-x="1871" 
d="M415 259v-103h829l-207 311l-52 414h-104q104 -155 -259 -570zM415 3318v-103q311 51 466 -208l52 -415h104q207 623 518 623v103h-1140zM259 3474h1400l104 -104q-104 -415 -467 -415l-155 -466q-104 -778 52 -1971l103 -155h363l104 -259l-104 -104l-1503 52v207
l414 259q208 260 208 571l-52 1814l-104 156l-466 104q-52 259 103 311z" />
    <glyph glyph-name="o" unicode="o" horiz-adv-x="2239" 
d="M444 2813v-99h49v99h-49zM543 592v-49h49v49h-49zM642 493v-98h49v98h-49zM642 3109v-99h49v99h-49zM740 395v-50h50v50h-50zM790 345l49 -148h99l-99 148h-49zM987 247v-99h247v99h-247zM691 3158v-49l247 148h345l197 -99v99q-197 0 -197 99q-345 98 -592 -198z
M1283 296v-99l296 148v99zM1480 3158l50 -98h49v98h-99zM1629 592v-49h49v49h-49zM1629 2961v-49h49v49h-49zM1727 790v-99h50v99h-50zM1727 2813v-99h50v99h-50zM444 2221v-938q148 -691 543 -888q691 -50 839 1283l-49 641q-346 839 -543 790q-346 49 -494 -148z
M1925 1925v-148h49v148h-49zM888 3504h444l297 -198q542 -740 493 -1332l-99 -1086l-296 -543l-444 -345q-888 0 -1135 1184q-148 1876 740 2320z" />
    <glyph glyph-name="p" unicode="p" horiz-adv-x="2080" 
d="M256 205v-51h973l-51 102l-461 51l-103 410h-102q0 -461 -256 -512zM256 3277q461 -307 307 -768q205 768 717 717l-819 102zM563 2202v-1229l359 512h358l205 102v103q-307 -154 -666 -103zM1485 1741v-51h102v51h-102zM1434 3226l102 -154h51l-51 154h-102zM1587 1843
v-102h51v102h-51zM1587 3072v-51h51v51h-51zM717 2509q0 -666 205 -768q563 -51 768 512l-52 512l-307 307q-461 51 -614 -563zM1690 2970v-103h51v103h-51zM307 3482l1280 -103q307 -307 410 -665l-51 -717q-205 -666 -1076 -717l-102 -358l-102 -103q153 -51 153 -307
q461 -102 563 -256l-102 -256h-1075l-103 102v154q256 154 308 717v1894l-52 205q-307 51 -256 205z" />
    <glyph glyph-name="bracketleft" unicode="[" 
d="M512 0v2560h2048v-2560h-2048zM2494 66v2428h-1916v-2428h1916z" />
    <glyph glyph-name="bracketright" unicode="]" 
d="M512 0v2560h2048v-2560h-2048zM2494 66v2428h-1916v-2428h1916z" />
    <glyph glyph-name="backslash" unicode="\" 
d="M512 0v2560h2048v-2560h-2048zM2494 66v2428h-1916v-2428h1916z" />
    <glyph glyph-name="a" unicode="a" horiz-adv-x="2505" 
d="M311 259v-103h363l-104 207v363l-155 -415zM674 3370q-104 -155 207 -207h52v103l-207 104h-52zM933 2385v-156h52v156h-52zM985 3163l52 -519l104 208v311h-156zM1089 2229v-622l104 -103h155l156 207v363l-208 829zM622 1141v-260l415 363h467l414 -311l-207 1037
q-104 -518 -311 -622q-415 -104 -570 622l-104 -726zM1763 259v-103h466l-207 570q0 -519 -259 -467zM518 3474q675 0 1089 -674q415 -1037 467 -1867l104 -103q0 -363 259 -519l-52 -311l-830 52v207l260 208q155 363 -363 622h-363l-363 -311v-415l311 -104l-104 -259
l-829 52v207l259 363q570 2022 518 2385q-570 104 -363 467z" />
    <glyph glyph-name="s" unicode="s" horiz-adv-x="1881" 
d="M247 642v-99h98v99h-98zM395 3010v-98h49v98h-49zM493 395v-50h50v50h-50zM493 2073v-50h50v50h-50zM493 3158v-98l99 49v49h-99zM592 1974v-49h99v49h-99zM740 1925l99 -148h148v98l-197 50h-50zM592 3257v-49l494 49v99h-346zM1135 3306l99 -148h49l-49 148h-99z
M1283 3158v-49h49v49h-49zM543 345v-98l197 -99q395 -99 691 197v99q-395 -345 -938 -99h50zM1036 1826v-99q247 50 346 -148h49v99l-296 148h-99zM1480 592v-99h50v99h-50zM1480 1530v-99h50v99h-50zM1382 3060l98 -247h50l-50 296zM197 1184l198 -98q0 -543 444 -691
q493 -50 641 493l-49 444l-99 148q-839 247 -937 395l-198 395l50 790l444 444q592 49 592 -148q296 98 395 0l-49 -938h-198q-99 642 -395 691l-394 -49l-149 -247v-494l99 -197l888 -296l297 -494v-592l-247 -493l-346 -247q-493 -99 -740 247l-197 -148l-148 98v889z" />
    <glyph glyph-name="d" unicode="d" horiz-adv-x="2231" 
d="M311 259v-103h519v103l-208 156l-52 363h-103v-415zM1089 259v-103l363 51v52h-363zM1452 363v-52h103v52h-103zM311 3318v-103l156 -52l51 -519h104q208 830 985 467l-259 207h-1037zM1607 518v-103h52v103h-52zM1607 3059v-104h52v104h-52zM1711 674v-104h52v104h-52z
M674 2489q-104 -1971 259 -2178q208 156 467 104q259 259 415 933q103 1141 -467 1711l-415 -52zM1815 2644v-103h52v103h-52zM207 3474l1297 -52q518 -467 622 -1193q52 -881 -104 -1503l-311 -467l-311 -259h-1193l-103 104l207 414l52 2230l-52 311l-207 207z" />
    <glyph glyph-name="f" unicode="f" horiz-adv-x="2177" 
d="M311 259v-103h570v103l-259 208v259h-104q-51 -519 -207 -467zM570 2333v-1140q104 466 311 570l415 -156v311l-415 -103zM311 3318v-103l207 -104l52 -415q208 467 519 519l518 -52l260 -260h51q104 260 -414 415h-1193zM207 3474q1660 155 1867 -363v-674l-104 -104
l-155 52l-52 363q-259 467 -726 311l-311 -363l52 -570l103 -104h208q52 467 363 311v-1089l-104 -103l-363 466h-104l-155 -414l52 -675q52 -155 570 -207q104 -155 -52 -311h-1089l-103 104v155q363 259 311 934v1659l-52 207l-259 104q-52 259 103 311z" />
    <glyph glyph-name="g" unicode="g" horiz-adv-x="2167" 
d="M247 1283v-247h49v247h-49zM247 2467v-148h49v148h-49zM345 2764v-148h50v148h-50zM444 592v-49h49v49h-49zM444 2912v-99h49v99h-49zM543 493v-98h99l-50 98h-49zM642 345l246 -197h198v99l-296 98h-148zM543 3060v-99l444 296q148 49 592 -148l-99 148l-296 99
l-345 -50zM1184 247v-99l395 99v98q-148 -148 -444 -98h49zM1530 3109v-49h49v49h-49zM1629 3060l98 -346h50v346h-148zM1431 1480v-98q247 0 296 -444l50 394l98 50v98h-444zM987 3504l444 -50l148 -148q247 198 346 0q49 -839 -99 -839l-197 50q-149 691 -691 592
l-296 -197l-247 -642l49 -1431l444 -444h543q49 148 247 98l-99 593l-148 197l-395 49q-98 148 50 297h888l99 -99q49 -247 -148 -296q-50 -1283 -543 -1234q-938 -197 -1283 987v1480l98 99q99 740 790 938z" />
    <glyph glyph-name="h" unicode="h" horiz-adv-x="2232" 
d="M311 259v-103h363l-156 518l-103 -363zM363 3318l155 -311l312 208v103h-467zM518 2281v-985h104l259 415q156 104 467 0l363 -311v726l104 52l-52 881l104 259l-415 -52l259 -207q156 -1141 -518 -1244l-363 103l-260 363h-52zM1504 259v-103h414l-155 259v881
q0 -1037 -259 -1037zM259 3474l726 -52v-259q-363 -208 -311 -830l156 -259q207 0 207 -104q104 -52 415 156l103 155v778q-414 104 -207 415l726 -52v-259l-156 -311q-103 -882 0 -2437l260 -156l-104 -259h-726l-104 156l311 466v674l-311 311q-363 0 -570 -466l52 -726
q415 -104 207 -415l-829 52q-104 311 207 415l52 2592l-207 207z" />
    <glyph glyph-name="j" unicode="j" horiz-adv-x="2281" 
d="M350 949v-400l100 -149h99l-149 299v250h-50zM549 400v-100l250 -150h150v100q-250 -50 -350 150h-50zM999 250v-100l250 50v100zM1249 350v-50h50v50h-50zM1449 649v-149h50v149h-50zM999 3297v-100q400 50 450 -150l99 -350v-399l150 699l200 200h100v100h-999z
M300 1648l200 -100l49 -849q200 -449 600 -299q100 0 300 599q50 1549 -100 1898l-100 150l-500 100l50 300h1299l100 -100v-150l-350 -300l-100 -499l-100 -1898l-499 -500l-500 50l-449 450v1048z" />
    <glyph glyph-name="k" unicode="k" horiz-adv-x="2377" 
d="M311 259v-103h467l-208 414h-103q51 -259 -156 -311zM311 3318v-103q311 0 207 -519l104 52q0 415 311 467v103h-622zM570 2229v-1140l156 518l207 260l311 -104q-103 155 0 622l-414 -363zM1244 2385v-52h52v52h-52zM1244 1711l52 -104h52v104h-104zM1296 2489v-104h52
v104h-52zM1400 2644v-52h52v52h-52zM1452 2696v-52h52v52h-52zM1504 2800v-104h51v104h-51zM1607 2955v-103h52v103h-52zM1555 3318v-103q260 0 104 -312l104 52l207 260v103h-415zM207 3474l882 -52v-259q-467 -260 -311 -985h103l623 829v156l-156 103l104 208l726 -52
v-259q-830 -726 -830 -1296l363 -571l207 -881l363 -156l-103 -259l-260 52l-207 259l-363 985l-363 415l-259 -674q-156 -674 363 -778l-52 -259l-933 52q-104 311 207 363q156 518 104 2281l-52 363l-259 104q-52 259 103 311z" />
    <glyph glyph-name="l" unicode="l" horiz-adv-x="2223" 
d="M307 3277v-103q410 0 410 -512h102q51 461 359 512l-52 103h-819zM307 256v-102h973l-461 460l-51 256h-102q-52 -614 -359 -614zM1894 1126v-153h52v153h-52zM205 3430h1075l102 -153q-51 -256 -307 -307q-307 -615 -205 -1844q52 -460 359 -768q461 0 512 205l51 819
l154 103l153 -205q0 -973 -665 -1280l-1332 51v205l308 205l153 665l-51 1844l-410 153q-51 256 103 307z" />
    <glyph glyph-name="semicolon" unicode=";" 
d="M512 0v2560h2048v-2560h-2048zM2494 66v2428h-1916v-2428h1916z" />
    <glyph glyph-name="quotesingle" unicode="'" 
d="M512 0v2560h2048v-2560h-2048zM2494 66v2428h-1916v-2428h1916z" />
    <glyph glyph-name="z" unicode="z" horiz-adv-x="1825" 
d="M256 2509v-51h51v51h-51zM256 307v-51h102v51h-102zM358 666v-52h52v52h-52zM461 922v-103h51v103h-51zM614 3174v-51h52v51h-52zM666 1382v-102h51v102h-51zM768 1587v-102h51v102h-51zM1075 2253v-103h51v103h-51zM512 256v-102h614l103 102v51zM1178 2458v-103h51v103
h-51zM717 3277v-51h665l-307 102zM1382 2918v-51h52v51h-52zM154 2355q-52 666 512 1075h819l205 -204l-410 -1127l-205 -307v-154q-102 52 -614 -1228l819 51l154 153v666l204 102l103 -102q51 -870 -563 -1280q-768 -102 -1076 205l103 512l1126 2355h-614l-256 -205v-563
l-205 -102z" />
    <glyph glyph-name="x" unicode="x" horiz-adv-x="2354" 
d="M614 717v-103h52v103h-52zM717 922v-103h51v103h-51zM717 2714v-103h51v103h-51zM307 3277l307 -359v-102l52 358h102v103l-256 51zM307 256v-102h512l-256 204l51 154h-102q-51 -307 -205 -256zM819 1178v-154q205 461 717 102l-102 1076l51 204q-410 -358 -717 103
l154 -359q51 -921 -103 -972zM1536 1075v-102h51v102h-51zM1536 2560v-102h51v102h-51zM1638 870v-153h52v153h-52zM1638 2765v-103h52v103h-52zM1587 3277l205 -154l-51 -256l307 359l-256 102zM1587 256v-102h512v102q-358 256 -307 410q-51 -410 -205 -410zM307 3482
l615 -103l-103 -563l256 -410h256l154 410l102 51v205q-256 51 -153 307l153 103l615 -103v-205l-205 -204l-359 -666l-51 -870q410 -1024 666 -1127q51 -256 -103 -307q-716 -51 -768 102v154l205 205v205l-307 460l-256 -51l-256 -512v-153q358 -103 102 -410h-665
l-103 154l564 921l102 410l-51 870l-359 717q-204 51 -204 205z" />
    <glyph glyph-name="c" unicode="c" horiz-adv-x="2087" 
d="M247 1777v-445h49v445h-49zM345 2665v-148h50v148h-50zM444 2912v-99h49v99h-49zM543 592v-99h49v99h-49zM543 3060v-99h49v99h-49zM642 444v-49h49v49h-49zM691 395l49 -148l198 -99h148v99l-346 148h-49zM642 3158v-98l345 197l345 -49v98l-148 50q-49 98 -542 -198z
M1184 247v-99l296 99v49zM1382 3208v-50h98v50h-98zM1480 345v-49h99v99zM1480 3158v-98h99l-49 98h-50zM1579 444v-49h99v98zM1727 642v-99h50v99h-50zM1629 3010l98 -296h50l-50 296h-98zM987 3504l395 -50l197 -148l247 99l99 -99v-888l-99 -99l-197 148
q-50 691 -691 642l-198 -99q-345 -641 -345 -888l98 -1234l445 -493h444l444 543l197 -198q-246 -592 -691 -740q-592 -99 -937 444l-296 839l49 1234q296 888 839 987z" />
    <glyph glyph-name="v" unicode="v" horiz-adv-x="2546" 
d="M307 3328l307 -563v-205q0 717 256 666l-204 102h-359zM1946 2816v-256l102 102v154h-102zM1690 3277q460 -154 307 -461l102 51q51 359 205 359l-205 102zM307 3482l666 -52l102 -153l-256 -307l103 -1024q256 -717 307 -1127h153l461 2048v205l-307 102
q-51 154 154 308q512 51 768 -103v-205l-205 -204l-666 -2509q-102 -410 -256 -461l-256 307l-512 2048l-102 154l-103 512l-204 153q-52 256 153 308z" />
    <glyph glyph-name="b" unicode="b" horiz-adv-x="2270" 
d="M307 256v-102h666v102q-461 205 -359 512l-102 -51q-51 -512 -205 -461zM563 2304v-1178q307 871 1127 512l-103 256l-717 -102zM1587 1997v-51h51v51h-51zM307 3277v-103l205 -102l51 -410l256 410q307 154 615 102l256 -153q0 205 -461 256h-922zM1434 256v-102l307 51
v102zM717 2662l51 -563l154 -153l614 102l102 410l103 51l-103 307l-204 205q-410 153 -717 -359zM1690 3021v-103h51v103h-51zM1741 358v-51h51v51h-51zM1792 461v-103h51v103h-51zM717 1075q51 -717 307 -717l614 52l205 358v358l-205 359l-256 102q-409 154 -665 -512z
M1894 614v-102h52v102h-52zM1894 1382v-102h52v102h-52zM205 3430l1382 -51q307 -205 410 -614v-512l-256 -461l358 -358l51 -768q-51 -308 -512 -666h-1433l-103 102v154q359 256 308 922v1638l-52 205l-256 102q-51 256 103 307z" />
    <glyph glyph-name="n" unicode="n" horiz-adv-x="2385" 
d="M256 3277v-51h154v51h-154zM307 205v-51h615v102q-359 -51 -308 358h-102q-51 -409 -205 -409zM461 3174l102 -819l154 154l205 -51l-103 358l-256 256v102h-102zM973 2355v-102h51v102h-51zM1485 1075l307 -819l102 154v563l-256 -51zM1536 3277q358 -154 358 -615
q52 461 205 512v103q-409 0 -409 102zM154 3430q358 154 921 -768q410 -1587 666 -1536v1588l-103 358l-256 51l-51 205l205 154l666 -52l102 -102v-154l-205 -204l-51 -2612q-51 -358 -154 -358l-256 205l-819 2099v51l-102 -51v-1587q51 -359 358 -410q51 -256 -102 -307
h-717l-102 102q409 820 256 2458l-52 461q-408 102 -204 409z" />
    <glyph glyph-name="m" unicode="m" horiz-adv-x="2583" 
d="M363 3318v-155h155l-103 155h-52zM570 2644v-103h52v103h-52zM311 259v-103h415q52 51 -156 207v259h-103l-52 -311zM1037 2022v-207l207 -363v-156h156l104 519l103 103v156l-311 -207zM1659 2489v-156h52v156h-52zM1763 259v-103h518v103l-155 104v778l-156 -778z
M2022 2748v-259h104q-52 674 155 726l-52 103l-207 -52q104 -51 0 -518zM259 3474h208l363 -415q259 -259 363 -933l155 -104l156 207q51 571 414 1193l467 52l104 -156q-311 -259 -208 -1140v-1815q363 -52 156 -363l-882 52q-103 311 260 363q259 1244 155 2177h-103
q-208 -1296 -519 -1607l-259 208l-311 1244l-104 52l52 -2074l311 -104l-52 -311q-881 -52 -881 104l207 466l52 2178q0 311 -207 467z" />
    <glyph glyph-name="comma" unicode="," 
d="M512 0v2560h2048v-2560h-2048zM2494 66v2428h-1916v-2428h1916z" />
    <glyph glyph-name="period" unicode="." horiz-adv-x="1622" 
d="M585 536v-341h341v341l-146 98zM585 699q439 49 488 -146q97 -487 -244 -585q-293 0 -390 195q-49 488 146 536z" />
    <glyph glyph-name="slash" unicode="/" 
d="M512 0v2560h2048v-2560h-2048zM2494 66v2428h-1916v-2428h1916z" />
    <glyph glyph-name="space" unicode=" " horiz-adv-x="983" 
 />
    <glyph glyph-name="asciitilde" unicode="~" 
d="M512 0v2560h2048v-2560h-2048zM2494 66v2428h-1916v-2428h1916z" />
    <glyph glyph-name="exclam" unicode="!" horiz-adv-x="736" 
d="M326 3305l46 -1676l93 1164l-46 558zM233 326l46 -186h233v325l-93 47q-140 0 -186 -186zM326 3491q233 0 279 -186l-46 -1722l-47 -326l-93 -93l-186 139l-47 1071v977zM279 652q280 46 373 -140q46 -465 -140 -512q-326 -93 -419 233q0 326 186 419z" />
    <glyph glyph-name="at" unicode="@" horiz-adv-x="1529" 
d="M218 1612v-523h43v523h-43zM305 2963v-174h44v174h-44zM392 523v-87h44v87h-44zM392 3137v-87h44v87h-44zM479 3268v-87h44v87h-44zM566 3312v-44h44v44h-44zM654 1830v-174h43v174h-43zM741 1438v-87h43v87h-43zM741 2135v-87h43v87h-43zM828 1307v-43h87v43h-87z
M828 2266v-87l87 43v44h-87zM610 3399v-87q0 87 436 0l-44 87l-174 87zM1002 3312v-44h44v44h-44zM479 392q-87 -87 218 -261h305l131 87v43l-479 -43zM828 1961q-44 -436 131 -567h174q44 131 -131 698h-87zM1089 3268v-87h44v87h-44zM1133 349v-88l87 44v44h-87zM915 2353
v-87l174 -44l88 -305h87v480zM959 1264v-87h348v174q-130 -131 -392 -87h44zM697 3573q436 44 654 -436l87 -1786l-44 -305q-697 -175 -871 566l43 436q175 436 567 523l-44 479l-174 175q-261 43 -349 -88l-217 -740l43 -1613l305 -435q349 -88 567 217l87 -87l-44 -261
l-305 -218q-436 -131 -653 261q-218 305 -262 785l87 1961l349 479z" />
    <glyph glyph-name="numbersign" unicode="#" horiz-adv-x="1609" 
d="M752 1923v-377q126 -83 168 168l-42 292zM293 1421v-84l209 -41l83 -293l167 293q251 0 293 -376q0 334 251 376v83q-293 42 -251 293l-167 -251q-251 -42 -293 293l-167 -293h-125zM334 2215v-83q293 0 251 -209l209 209l167 -42l126 -167l167 209h125v83
q-292 0 -292 251h-84l-125 -251l-293 293l-83 -251zM669 3553l125 -84v-1045l84 -42q83 84 83 1003l126 168l125 -84v-1003l84 -125q209 41 250 -126l-376 -418v-251q376 -41 293 -250q-126 0 -293 -293l-83 -919l-84 -84l-167 125q84 753 0 1003h-84l-83 -1044l-167 -84
l-84 84q84 877 0 1086q-376 42 -293 251l251 125l126 293l-42 167q-293 0 -293 167q251 209 335 418l41 836z" />
    <glyph glyph-name="dollar" unicode="$" horiz-adv-x="1442" 
d="M164 1065l41 -164l123 123v82zM369 2212v-82h82l-41 82h-41zM451 2990v-41h41v41h-41zM492 2130v-82h122l-82 82h-40zM492 3072v-82l122 41v82zM655 3154l164 -123h164l-164 164zM369 1024v-123q327 -82 327 -532l82 409l287 123v82q-287 -205 -451 -123zM655 2048v-82
l246 -82h164l-287 164h-123zM1065 1024v-41h82v82zM1065 1843l41 -82h41v82h-82zM1024 2990l82 -164h82q41 123 -82 164h-82zM1188 1679v-82h41v82h-41zM205 1475q205 -82 246 -369l163 -123q205 -123 492 287v286l-123 205q-737 164 -819 533v491l246 369l204 164l41 286
q246 41 287 -409q205 -82 246 0l123 -123q41 -532 -82 -532l-164 40q-41 410 -410 369q-163 -82 -245 -328q-41 -286 122 -409q738 -82 820 -574v-491q-164 -410 -492 -492q41 -655 -82 -655l-164 41q41 205 -122 614l-123 123l-205 -41l-82 164l41 492z" />
    <glyph glyph-name="percent" unicode="%" horiz-adv-x="1808" 
d="M565 3390v-47h141v47h-141zM377 2825q0 -330 235 -518q235 0 330 424q94 0 -189 470q-235 95 -376 -376zM565 3531q424 0 612 -612q0 -753 -424 -895q-423 0 -612 565q0 754 424 942zM847 989q-94 -424 189 -707q235 48 329 283q0 565 -188 612q-47 94 -330 -188z
M942 1459q423 142 659 -470q47 -612 -330 -989q-329 -188 -659 424q-141 706 330 1035zM1507 2260l141 -47q47 -236 -94 -283l-1272 -659l-188 47v189z" />
    <glyph glyph-name="asciicircum" unicode="^" 
d="M512 0v2560h2048v-2560h-2048zM2494 66v2428h-1916v-2428h1916z" />
    <glyph glyph-name="ampersand" unicode="&#x26;" horiz-adv-x="1865" 
d="M426 479v-107h53v107h-53zM426 1702v-53h53v53h-53zM532 372v-53h53v53h-53zM638 3138v-106l107 53v53h-107zM585 319l107 -159q212 -54 319 106v106q-160 -212 -479 -53h53zM426 1277v-479l266 -372q106 -54 319 159v266l-373 638q-159 0 -212 -212zM745 3245l372 -160
h160l-319 213zM479 1755l319 -212l372 -745l-106 -372q372 53 372 -160l160 53l-373 319l160 585q-213 -106 -479 266l-212 426zM1436 1596v-53l160 53v53zM851 3458l426 -107l53 53l106 -106v-213l-159 -159l-426 106l-159 -213l53 -638l425 -798l107 53l106 373
q319 53 372 -160l-212 -426l-107 -638l319 -159q54 -160 -159 -320l-479 160q-106 -479 -638 -160q-479 532 -373 639l54 851l372 479l-160 266v638q213 425 479 479z" />
    <glyph glyph-name="asterisk" unicode="*" 
d="M512 0v2560h2048v-2560h-2048zM2494 66v2428h-1916v-2428h1916z" />
    <glyph glyph-name="parenleft" unicode="(" 
d="M512 0v2560h2048v-2560h-2048zM2494 66v2428h-1916v-2428h1916z" />
    <glyph glyph-name="parenright" unicode=")" 
d="M512 0v2560h2048v-2560h-2048zM2494 66v2428h-1916v-2428h1916z" />
    <glyph glyph-name="underscore" unicode="_" 
d="M512 0v2560h2048v-2560h-2048zM2494 66v2428h-1916v-2428h1916z" />
    <glyph glyph-name="plus" unicode="+" 
d="M512 0v2560h2048v-2560h-2048zM2494 66v2428h-1916v-2428h1916z" />
    <glyph glyph-name="Q" unicode="Q" horiz-adv-x="1910" 
d="M218 2266v-131h43v131h-43zM479 3094v-44h44v44h-44zM566 3268v-87l88 44v43h-88zM654 3355v-87l174 87h261v87h-261zM1133 741v-87l131 43v87zM1264 828v-44h43v44h-43zM1133 3399v-87l131 -87h43l-87 174h-87zM1351 915v-87h43v87h-43zM1351 3225v-88h43v88h-43z
M479 1002q0 -174 175 -261l43 -305l-131 -218v-87l567 130q218 -217 305 -130q-174 174 -567 218q-87 174 218 348q-261 -131 -566 305h-44zM349 2179q43 -872 130 -915l175 -305l217 -131q306 -44 436 131l262 697v784q-218 697 -480 785q-523 174 -740 -1046zM1612 1482
v-131h44v131h-44zM1612 2702v-131h44v131h-44zM1482 218v-87l217 130v44zM784 3573q698 174 1046 -1089l-43 -1177q-305 -784 -785 -871h262l43 -87q262 -44 392 130l131 -87q44 -305 -261 -392l-698 131q44 -131 -305 -131l-130 44l130 566l-174 174l-218 480
q-130 523 -87 1045l87 480l349 610z" />
    <glyph glyph-name="W" unicode="W" horiz-adv-x="2519" 
d="M563 1485v-154h51v154h-51zM614 922l103 -615h102l103 410v256l-103 -103zM307 3277q256 -154 154 -615l102 52q51 460 359 512l-359 102zM1075 1894v-256l154 256l256 -102l-154 666l-153 -154zM1485 1690v-154h51v154h-51zM1587 1178v-154h51v154h-51zM1843 1178v-103
h51v103h-51zM1638 922l154 -717l102 102l52 410v256l-154 -103zM1638 3277q461 -51 359 -359l153 52v204h103v103l-307 51zM307 3482l768 -103v-256l-307 -205l-102 -768l102 -1024l102 103l154 1126l154 307l153 52q359 -359 359 -1332l153 -51l51 666l-51 1075
q-358 0 -358 102q-51 256 153 308l768 -103l-204 -921q-52 -2253 -308 -2458l-256 205l-307 1433v52l-102 -52l-256 -1382l-256 -256l-205 358l-205 2663l-153 102q-52 307 153 359z" />
    <glyph glyph-name="E" unicode="E" horiz-adv-x="2144" 
d="M311 259v-103h830l-519 466l-52 415q0 -570 -259 -778zM570 2074v-570h104q52 207 259 259l363 -363v622l-415 -207l-259 259h-52zM1400 259v-52h104v52h-104zM311 3318v-103l207 -104v-622q104 674 519 726q259 207 830 -415q51 415 -519 518h-1037zM156 3474l1451 -52
l363 -311v-674l-103 -104l-156 52l-104 467l-259 207q-363 156 -622 -311q-104 -467 207 -778h104l207 467l208 -156v-985l-156 -155q-207 103 -155 259l-208 207l-207 -259q-208 -674 467 -985l362 52l208 155v571l207 103l104 -103q0 -882 -674 -1141l-1296 52v259
q103 -52 259 363q104 1089 0 2385q-414 104 -207 415z" />
    <glyph glyph-name="R" unicode="R" horiz-adv-x="2450" 
d="M307 256v-102h666l-307 204l-52 717l-153 -768zM307 3277l256 -205v-614q154 768 768 768l-819 102zM1331 1536v-51h51v51h-51zM1382 1485v-51h52v51h-52zM614 1894v-614h103l256 307l358 -51l51 154h103v102l-615 -102l-204 204h-52zM1485 1382v-102h51v102h-51z
M1485 1843v-51h51v51h-51zM1587 1229v-103h51v103h-51zM1587 1946v-103h51v103h-51zM1485 3226l102 -205h51q52 153 -102 205h-51zM768 2714q-51 -820 154 -871l460 51l308 359v461l-308 358q-307 51 -460 -102zM1690 2048v-102h51v102h-51zM1690 2970v-52h51v52h-51z
M1792 768v-51h51v51h-51zM1792 2304v-154h51v154h-51zM307 3482l1331 -103l359 -563q205 -768 -461 -1280l358 -461l205 -665l256 -103q51 -256 -102 -307l-205 51l-614 1075l-256 308h-205l-205 -256q-154 -871 358 -922q52 -205 -102 -256l-870 51v256q256 103 307 1075
l-51 1639l-256 153q-52 256 153 308z" />
    <glyph glyph-name="T" unicode="T" horiz-adv-x="2150" 
d="M819 3277v-154l205 -153l51 -359h103q51 615 358 615v51h-717zM614 256v-102h973v102q-358 0 -358 102l-103 410h-102q-51 -461 -410 -512zM1638 3174v-51h103v51h-103zM1741 3072l102 -358h51q52 358 -102 358h-51zM1075 3482q819 -103 973 -461l-51 -922h-205
q0 563 -256 973l-154 -154l-102 -358l51 -2048l461 -256l-102 -256h-1127l-102 102v205l205 103q358 409 307 1024q102 972 -205 1638q-205 51 -256 -102l-51 -820q-256 -102 -307 52q-52 1075 921 1280z" />
    <glyph glyph-name="Y" unicode="Y" horiz-adv-x="2233" 
d="M614 2816v-154h52v154h-52zM256 3277q307 -256 256 -359h102v256l103 52l-256 102zM819 2304q256 -512 307 -1126l154 768l102 102v205l-307 -154zM1536 2662v-102h51v102h-51zM614 205v-51h1024l-51 102q-409 -51 -409 410h-103l-153 -359zM1638 2918v-153h52v153h-52z
M1536 3328q51 -154 154 -154v-204h102l205 256l-256 102h-205zM256 3482l614 -103l-102 -512l256 -563l256 51l256 615v102q-256 51 -154 307l154 103l614 -103v-205q-153 -51 -512 -768l-307 -1024q-102 -870 0 -921l461 -154q51 -256 -102 -307h-1127l-102 102l51 205
l358 205q154 256 103 768l-205 819l-307 512l-103 410l-256 205q52 256 154 256z" />
    <glyph glyph-name="U" unicode="U" horiz-adv-x="2209" 
d="M500 949v-150h49v150h-49zM599 599v-50h50v50h-50zM250 3297q299 -50 200 -650l99 50q100 550 300 550l-349 100zM699 500l100 -250q200 0 200 -100h300l150 100v50l-450 -50zM1449 400v-50h99v100zM1598 599v-99h50v99h-50zM1648 649v-50h50v50h-50zM1698 849v-200h50
v200h-50zM1399 3297l299 -150l50 -300h100q-50 400 150 400l-400 150zM250 3497l749 -100v-250l-150 -50l-150 -250q-100 -1049 0 -2148l350 -299q350 -100 599 649v1548l-100 500l-299 100q-50 150 150 300l749 -100q50 -300 -150 -400l-100 -2398q-250 -399 -549 -599
h-400q-400 200 -599 799q100 2398 -250 2398q-50 150 150 300z" />
    <glyph glyph-name="I" unicode="I" horiz-adv-x="1871" 
d="M415 259v-103h829l-207 311l-52 414h-104q104 -155 -259 -570zM415 3318v-103q311 51 466 -208l52 -415h104q207 623 518 623v103h-1140zM259 3474h1400l104 -104q-104 -415 -467 -415l-155 -466q-104 -778 52 -1971l103 -155h363l104 -259l-104 -104l-1503 52v207
l414 259q208 260 208 571l-52 1814l-104 156l-466 104q-52 259 103 311z" />
    <glyph glyph-name="O" unicode="O" horiz-adv-x="2239" 
d="M444 2813v-99h49v99h-49zM543 592v-49h49v49h-49zM642 493v-98h49v98h-49zM642 3109v-99h49v99h-49zM740 395v-50h50v50h-50zM790 345l49 -148h99l-99 148h-49zM987 247v-99h247v99h-247zM691 3158v-49l247 148h345l197 -99v99q-197 0 -197 99q-345 98 -592 -198z
M1283 296v-99l296 148v99zM1480 3158l50 -98h49v98h-99zM1629 592v-49h49v49h-49zM1629 2961v-49h49v49h-49zM1727 790v-99h50v99h-50zM1727 2813v-99h50v99h-50zM444 2221v-938q148 -691 543 -888q691 -50 839 1283l-49 641q-346 839 -543 790q-346 49 -494 -148z
M1925 1925v-148h49v148h-49zM888 3504h444l297 -198q542 -740 493 -1332l-99 -1086l-296 -543l-444 -345q-888 0 -1135 1184q-148 1876 740 2320z" />
    <glyph glyph-name="P" unicode="P" horiz-adv-x="2080" 
d="M256 205v-51h973l-51 102l-461 51l-103 410h-102q0 -461 -256 -512zM256 3277q461 -307 307 -768q205 768 717 717l-819 102zM563 2202v-1229l359 512h358l205 102v103q-307 -154 -666 -103zM1485 1741v-51h102v51h-102zM1434 3226l102 -154h51l-51 154h-102zM1587 1843
v-102h51v102h-51zM1587 3072v-51h51v51h-51zM717 2509q0 -666 205 -768q563 -51 768 512l-52 512l-307 307q-461 51 -614 -563zM1690 2970v-103h51v103h-51zM307 3482l1280 -103q307 -307 410 -665l-51 -717q-205 -666 -1076 -717l-102 -358l-102 -103q153 -51 153 -307
q461 -102 563 -256l-102 -256h-1075l-103 102v154q256 154 308 717v1894l-52 205q-307 51 -256 205z" />
    <glyph glyph-name="braceleft" unicode="{" 
d="M512 0v2560h2048v-2560h-2048zM2494 66v2428h-1916v-2428h1916z" />
    <glyph glyph-name="braceright" unicode="}" 
d="M512 0v2560h2048v-2560h-2048zM2494 66v2428h-1916v-2428h1916z" />
    <glyph glyph-name="bar" unicode="|" 
d="M512 0v2560h2048v-2560h-2048zM2494 66v2428h-1916v-2428h1916z" />
    <glyph glyph-name="A" unicode="A" horiz-adv-x="2505" 
d="M311 259v-103h363l-104 207v363l-155 -415zM674 3370q-104 -155 207 -207h52v103l-207 104h-52zM933 2385v-156h52v156h-52zM985 3163l52 -519l104 208v311h-156zM1089 2229v-622l104 -103h155l156 207v363l-208 829zM622 1141v-260l415 363h467l414 -311l-207 1037
q-104 -518 -311 -622q-415 -104 -570 622l-104 -726zM1763 259v-103h466l-207 570q0 -519 -259 -467zM518 3474q675 0 1089 -674q415 -1037 467 -1867l104 -103q0 -363 259 -519l-52 -311l-830 52v207l260 208q155 363 -363 622h-363l-363 -311v-415l311 -104l-104 -259
l-829 52v207l259 363q570 2022 518 2385q-570 104 -363 467z" />
    <glyph glyph-name="S" unicode="S" horiz-adv-x="1881" 
d="M247 642v-99h98v99h-98zM395 3010v-98h49v98h-49zM493 395v-50h50v50h-50zM493 2073v-50h50v50h-50zM493 3158v-98l99 49v49h-99zM592 1974v-49h99v49h-99zM740 1925l99 -148h148v98l-197 50h-50zM592 3257v-49l494 49v99h-346zM1135 3306l99 -148h49l-49 148h-99z
M1283 3158v-49h49v49h-49zM543 345v-98l197 -99q395 -99 691 197v99q-395 -345 -938 -99h50zM1036 1826v-99q247 50 346 -148h49v99l-296 148h-99zM1480 592v-99h50v99h-50zM1480 1530v-99h50v99h-50zM1382 3060l98 -247h50l-50 296zM197 1184l198 -98q0 -543 444 -691
q493 -50 641 493l-49 444l-99 148q-839 247 -937 395l-198 395l50 790l444 444q592 49 592 -148q296 98 395 0l-49 -938h-198q-99 642 -395 691l-394 -49l-149 -247v-494l99 -197l888 -296l297 -494v-592l-247 -493l-346 -247q-493 -99 -740 247l-197 -148l-148 98v889z" />
    <glyph glyph-name="D" unicode="D" horiz-adv-x="2231" 
d="M311 259v-103h519v103l-208 156l-52 363h-103v-415zM1089 259v-103l363 51v52h-363zM1452 363v-52h103v52h-103zM311 3318v-103l156 -52l51 -519h104q208 830 985 467l-259 207h-1037zM1607 518v-103h52v103h-52zM1607 3059v-104h52v104h-52zM1711 674v-104h52v104h-52z
M674 2489q-104 -1971 259 -2178q208 156 467 104q259 259 415 933q103 1141 -467 1711l-415 -52zM1815 2644v-103h52v103h-52zM207 3474l1297 -52q518 -467 622 -1193q52 -881 -104 -1503l-311 -467l-311 -259h-1193l-103 104l207 414l52 2230l-52 311l-207 207z" />
    <glyph glyph-name="F" unicode="F" horiz-adv-x="2177" 
d="M311 259v-103h570v103l-259 208v259h-104q-51 -519 -207 -467zM570 2333v-1140q104 466 311 570l415 -156v311l-415 -103zM311 3318v-103l207 -104l52 -415q208 467 519 519l518 -52l260 -260h51q104 260 -414 415h-1193zM207 3474q1660 155 1867 -363v-674l-104 -104
l-155 52l-52 363q-259 467 -726 311l-311 -363l52 -570l103 -104h208q52 467 363 311v-1089l-104 -103l-363 466h-104l-155 -414l52 -675q52 -155 570 -207q104 -155 -52 -311h-1089l-103 104v155q363 259 311 934v1659l-52 207l-259 104q-52 259 103 311z" />
    <glyph glyph-name="G" unicode="G" horiz-adv-x="2167" 
d="M247 1283v-247h49v247h-49zM247 2467v-148h49v148h-49zM345 2764v-148h50v148h-50zM444 592v-49h49v49h-49zM444 2912v-99h49v99h-49zM543 493v-98h99l-50 98h-49zM642 345l246 -197h198v99l-296 98h-148zM543 3060v-99l444 296q148 49 592 -148l-99 148l-296 99
l-345 -50zM1184 247v-99l395 99v98q-148 -148 -444 -98h49zM1530 3109v-49h49v49h-49zM1629 3060l98 -346h50v346h-148zM1431 1480v-98q247 0 296 -444l50 394l98 50v98h-444zM987 3504l444 -50l148 -148q247 198 346 0q49 -839 -99 -839l-197 50q-149 691 -691 592
l-296 -197l-247 -642l49 -1431l444 -444h543q49 148 247 98l-99 593l-148 197l-395 49q-98 148 50 297h888l99 -99q49 -247 -148 -296q-50 -1283 -543 -1234q-938 -197 -1283 987v1480l98 99q99 740 790 938z" />
    <glyph glyph-name="H" unicode="H" horiz-adv-x="2232" 
d="M311 259v-103h363l-156 518l-103 -363zM363 3318l155 -311l312 208v103h-467zM518 2281v-985h104l259 415q156 104 467 0l363 -311v726l104 52l-52 881l104 259l-415 -52l259 -207q156 -1141 -518 -1244l-363 103l-260 363h-52zM1504 259v-103h414l-155 259v881
q0 -1037 -259 -1037zM259 3474l726 -52v-259q-363 -208 -311 -830l156 -259q207 0 207 -104q104 -52 415 156l103 155v778q-414 104 -207 415l726 -52v-259l-156 -311q-103 -882 0 -2437l260 -156l-104 -259h-726l-104 156l311 466v674l-311 311q-363 0 -570 -466l52 -726
q415 -104 207 -415l-829 52q-104 311 207 415l52 2592l-207 207z" />
    <glyph glyph-name="J" unicode="J" horiz-adv-x="2281" 
d="M350 949v-400l100 -149h99l-149 299v250h-50zM549 400v-100l250 -150h150v100q-250 -50 -350 150h-50zM999 250v-100l250 50v100zM1249 350v-50h50v50h-50zM1449 649v-149h50v149h-50zM999 3297v-100q400 50 450 -150l99 -350v-399l150 699l200 200h100v100h-999z
M300 1648l200 -100l49 -849q200 -449 600 -299q100 0 300 599q50 1549 -100 1898l-100 150l-500 100l50 300h1299l100 -100v-150l-350 -300l-100 -499l-100 -1898l-499 -500l-500 50l-449 450v1048z" />
    <glyph glyph-name="K" unicode="K" horiz-adv-x="2377" 
d="M311 259v-103h467l-208 414h-103q51 -259 -156 -311zM311 3318v-103q311 0 207 -519l104 52q0 415 311 467v103h-622zM570 2229v-1140l156 518l207 260l311 -104q-103 155 0 622l-414 -363zM1244 2385v-52h52v52h-52zM1244 1711l52 -104h52v104h-104zM1296 2489v-104h52
v104h-52zM1400 2644v-52h52v52h-52zM1452 2696v-52h52v52h-52zM1504 2800v-104h51v104h-51zM1607 2955v-103h52v103h-52zM1555 3318v-103q260 0 104 -312l104 52l207 260v103h-415zM207 3474l882 -52v-259q-467 -260 -311 -985h103l623 829v156l-156 103l104 208l726 -52
v-259q-830 -726 -830 -1296l363 -571l207 -881l363 -156l-103 -259l-260 52l-207 259l-363 985l-363 415l-259 -674q-156 -674 363 -778l-52 -259l-933 52q-104 311 207 363q156 518 104 2281l-52 363l-259 104q-52 259 103 311z" />
    <glyph glyph-name="L" unicode="L" horiz-adv-x="2223" 
d="M307 3277v-103q410 0 410 -512h102q51 461 359 512l-52 103h-819zM307 256v-102h973l-461 460l-51 256h-102q-52 -614 -359 -614zM1894 1126v-153h52v153h-52zM205 3430h1075l102 -153q-51 -256 -307 -307q-307 -615 -205 -1844q52 -460 359 -768q461 0 512 205l51 819
l154 103l153 -205q0 -973 -665 -1280l-1332 51v205l308 205l153 665l-51 1844l-410 153q-51 256 103 307z" />
    <glyph glyph-name="colon" unicode=":" 
d="M512 0v2560h2048v-2560h-2048zM2494 66v2428h-1916v-2428h1916z" />
    <glyph glyph-name="quotedbl" unicode="&#x22;" 
d="M512 0v2560h2048v-2560h-2048zM2494 66v2428h-1916v-2428h1916z" />
    <glyph glyph-name="Z" unicode="Z" horiz-adv-x="1825" 
d="M256 2509v-51h51v51h-51zM256 307v-51h102v51h-102zM358 666v-52h52v52h-52zM461 922v-103h51v103h-51zM614 3174v-51h52v51h-52zM666 1382v-102h51v102h-51zM768 1587v-102h51v102h-51zM1075 2253v-103h51v103h-51zM512 256v-102h614l103 102v51zM1178 2458v-103h51v103
h-51zM717 3277v-51h665l-307 102zM1382 2918v-51h52v51h-52zM154 2355q-52 666 512 1075h819l205 -204l-410 -1127l-205 -307v-154q-102 52 -614 -1228l819 51l154 153v666l204 102l103 -102q51 -870 -563 -1280q-768 -102 -1076 205l103 512l1126 2355h-614l-256 -205v-563
l-205 -102z" />
    <glyph glyph-name="X" unicode="X" horiz-adv-x="2354" 
d="M614 717v-103h52v103h-52zM717 922v-103h51v103h-51zM717 2714v-103h51v103h-51zM307 3277l307 -359v-102l52 358h102v103l-256 51zM307 256v-102h512l-256 204l51 154h-102q-51 -307 -205 -256zM819 1178v-154q205 461 717 102l-102 1076l51 204q-410 -358 -717 103
l154 -359q51 -921 -103 -972zM1536 1075v-102h51v102h-51zM1536 2560v-102h51v102h-51zM1638 870v-153h52v153h-52zM1638 2765v-103h52v103h-52zM1587 3277l205 -154l-51 -256l307 359l-256 102zM1587 256v-102h512v102q-358 256 -307 410q-51 -410 -205 -410zM307 3482
l615 -103l-103 -563l256 -410h256l154 410l102 51v205q-256 51 -153 307l153 103l615 -103v-205l-205 -204l-359 -666l-51 -870q410 -1024 666 -1127q51 -256 -103 -307q-716 -51 -768 102v154l205 205v205l-307 460l-256 -51l-256 -512v-153q358 -103 102 -410h-665
l-103 154l564 921l102 410l-51 870l-359 717q-204 51 -204 205z" />
    <glyph glyph-name="C" unicode="C" horiz-adv-x="2087" 
d="M247 1777v-445h49v445h-49zM345 2665v-148h50v148h-50zM444 2912v-99h49v99h-49zM543 592v-99h49v99h-49zM543 3060v-99h49v99h-49zM642 444v-49h49v49h-49zM691 395l49 -148l198 -99h148v99l-346 148h-49zM642 3158v-98l345 197l345 -49v98l-148 50q-49 98 -542 -198z
M1184 247v-99l296 99v49zM1382 3208v-50h98v50h-98zM1480 345v-49h99v99zM1480 3158v-98h99l-49 98h-50zM1579 444v-49h99v98zM1727 642v-99h50v99h-50zM1629 3010l98 -296h50l-50 296h-98zM987 3504l395 -50l197 -148l247 99l99 -99v-888l-99 -99l-197 148
q-50 691 -691 642l-198 -99q-345 -641 -345 -888l98 -1234l445 -493h444l444 543l197 -198q-246 -592 -691 -740q-592 -99 -937 444l-296 839l49 1234q296 888 839 987z" />
    <glyph glyph-name="V" unicode="V" horiz-adv-x="2546" 
d="M307 3328l307 -563v-205q0 717 256 666l-204 102h-359zM1946 2816v-256l102 102v154h-102zM1690 3277q460 -154 307 -461l102 51q51 359 205 359l-205 102zM307 3482l666 -52l102 -153l-256 -307l103 -1024q256 -717 307 -1127h153l461 2048v205l-307 102
q-51 154 154 308q512 51 768 -103v-205l-205 -204l-666 -2509q-102 -410 -256 -461l-256 307l-512 2048l-102 154l-103 512l-204 153q-52 256 153 308z" />
    <glyph glyph-name="B" unicode="B" horiz-adv-x="2270" 
d="M307 256v-102h666v102q-461 205 -359 512l-102 -51q-51 -512 -205 -461zM563 2304v-1178q307 871 1127 512l-103 256l-717 -102zM1587 1997v-51h51v51h-51zM307 3277v-103l205 -102l51 -410l256 410q307 154 615 102l256 -153q0 205 -461 256h-922zM1434 256v-102l307 51
v102zM717 2662l51 -563l154 -153l614 102l102 410l103 51l-103 307l-204 205q-410 153 -717 -359zM1690 3021v-103h51v103h-51zM1741 358v-51h51v51h-51zM1792 461v-103h51v103h-51zM717 1075q51 -717 307 -717l614 52l205 358v358l-205 359l-256 102q-409 154 -665 -512z
M1894 614v-102h52v102h-52zM1894 1382v-102h52v102h-52zM205 3430l1382 -51q307 -205 410 -614v-512l-256 -461l358 -358l51 -768q-51 -308 -512 -666h-1433l-103 102v154q359 256 308 922v1638l-52 205l-256 102q-51 256 103 307z" />
    <glyph glyph-name="N" unicode="N" horiz-adv-x="2385" 
d="M256 3277v-51h154v51h-154zM307 205v-51h615v102q-359 -51 -308 358h-102q-51 -409 -205 -409zM461 3174l102 -819l154 154l205 -51l-103 358l-256 256v102h-102zM973 2355v-102h51v102h-51zM1485 1075l307 -819l102 154v563l-256 -51zM1536 3277q358 -154 358 -615
q52 461 205 512v103q-409 0 -409 102zM154 3430q358 154 921 -768q410 -1587 666 -1536v1588l-103 358l-256 51l-51 205l205 154l666 -52l102 -102v-154l-205 -204l-51 -2612q-51 -358 -154 -358l-256 205l-819 2099v51l-102 -51v-1587q51 -359 358 -410q51 -256 -102 -307
h-717l-102 102q409 820 256 2458l-52 461q-408 102 -204 409z" />
    <glyph glyph-name="M" unicode="M" horiz-adv-x="2583" 
d="M363 3318v-155h155l-103 155h-52zM570 2644v-103h52v103h-52zM311 259v-103h415q52 51 -156 207v259h-103l-52 -311zM1037 2022v-207l207 -363v-156h156l104 519l103 103v156l-311 -207zM1659 2489v-156h52v156h-52zM1763 259v-103h518v103l-155 104v778l-156 -778z
M2022 2748v-259h104q-52 674 155 726l-52 103l-207 -52q104 -51 0 -518zM259 3474h208l363 -415q259 -259 363 -933l155 -104l156 207q51 571 414 1193l467 52l104 -156q-311 -259 -208 -1140v-1815q363 -52 156 -363l-882 52q-103 311 260 363q259 1244 155 2177h-103
q-208 -1296 -519 -1607l-259 208l-311 1244l-104 52l52 -2074l311 -104l-52 -311q-881 -52 -881 104l207 466l52 2178q0 311 -207 467z" />
    <glyph glyph-name="less" unicode="&#x3c;" 
d="M512 0v2560h2048v-2560h-2048zM2494 66v2428h-1916v-2428h1916z" />
    <glyph glyph-name="greater" unicode="&#x3e;" 
d="M512 0v2560h2048v-2560h-2048zM2494 66v2428h-1916v-2428h1916z" />
    <glyph glyph-name="question" unicode="?" horiz-adv-x="1622" 
d="M439 3267v-49l244 49v49zM585 536v-341h341v341l-146 98zM975 1804v-49h49v49h-49zM585 699q439 49 488 -146q97 -487 -244 -585q-293 0 -390 195q-49 488 146 536zM1024 1853v-49h49v49h-49zM1073 1902v-49h49v49h-49zM829 3316l244 -195h49l-98 195h-195zM1122 3121
v-49h48v49h-48zM1170 3072v-49h49v49h-49zM1268 2926v-147h49v147h-49zM780 3511q585 -98 732 -780l-49 -683l-488 -488l-146 -438l-195 48q-49 390 97 585q537 342 488 878q-97 341 -439 537l-390 -196v-341l-195 -97l-97 97q-49 829 682 878z" />
  </font>
</defs>
</svg>
